<mxfile host="app.diagrams.net" modified="2023-10-31T06:56:49.525Z" agent="Mozilla/5.0 (Macintosh; Intel Mac OS X 10_15_7) AppleWebKit/537.36 (KHTML, like Gecko) Chrome/118.0.0.0 Safari/537.36" version="22.0.8" etag="toLuTwv8GemyJuz_9P5y" type="github">
  <diagram name="第 1 页" id="I5vmAxsKrM3oIu-w4Qc6">
    <mxGraphModel>
      <root>
        <mxCell id="0" />
        <mxCell id="1" parent="0" />
      </root>
    </mxGraphModel>
  </diagram>
</mxfile>
